# File created by Blade
# Date/Time:  Thu Jan 22 16:00:44 2015
# Frame Rate: 120.000 fps
#------------------------------------------------------
:FULLY-SPECIFIED
:DEGREES
1850
root 1.172722 37.111137 7.873449 2.232231 -7.027166 0.842233
RightUpLeg 8.772332 3.232655 -1.689797
RightLeg -6.515512 -0.000000 0.000000
RightFoot -10.172681 -7.607050 17.441626
RightToeBase 13.633187 -0.000000 -0.000000
LeftUpLeg 7.600895 7.154447 6.105233
LeftLeg -3.310378 -0.000000 0.000000
LeftFoot -6.990366 8.406363 -20.679925
LeftToeBase 6.846647 -0.000000 -0.000000
Spine -11.619067 -2.397423 -3.194038
RightShoulder 10.835762 -26.935905 -16.493544
RightArm 130.132152 -50.502446 -37.584577
RightForeArm -34.827626 -0.000000 114.480125
RightHand 37.055121 -0.000000 -31.902844
RightHandThumb1 -24.326973 -0.000000 -32.862282
LeftShoulder -15.612198 3.444485 32.664185
LeftArm 161.847018 -34.680200 -104.299121
LeftForeArm -34.420957 0.000000 148.732796
LeftHand -2.237958 -0.000000 -10.711486
LeftHandThumb1 -26.253704 0.000000 33.147579
Head 38.854855 -13.649719 4.763057
1851
root 1.170469 37.109844 7.884704 2.274750 -7.033568 0.858186
RightUpLeg 8.749194 3.227684 -1.705292
RightLeg -6.524209 -0.000000 0.000000
RightFoot -10.172494 -7.619177 17.410913
RightToeBase 13.598497 -0.000000 -0.000000
LeftUpLeg 7.571938 7.176231 6.087949
LeftLeg -3.305525 -0.000000 0.000000
LeftFoot -6.991700 8.397615 -20.688073
LeftToeBase 6.805324 -0.000000 -0.000000
Spine -11.633137 -2.210663 -3.246702
RightShoulder 10.791429 -27.120215 -16.494261
RightArm 130.024513 -50.636456 -37.395803
RightForeArm -34.811129 0.000000 114.526056
RightHand 37.162895 -0.000000 -31.642134
RightHandThumb1 -24.326973 -0.000000 -32.862282
LeftShoulder -15.605927 3.503351 32.544211
LeftArm 162.292739 -34.629840 -104.786799
LeftForeArm -34.144543 -0.000000 148.902678
LeftHand -2.190003 0.000000 -9.983882
LeftHandThumb1 -26.253704 0.000000 33.147579
Head 38.765856 -13.625533 4.761960
1852
root 1.167764 37.108492 7.895221 2.322249 -7.038759 0.869128
RightUpLeg 8.722919 3.232977 -1.715618
RightLeg -6.536711 -0.000000 0.000000
RightFoot -10.209666 -7.596437 17.449542
RightToeBase 13.669654 -0.000000 -0.000000
LeftUpLeg 7.538137 7.201456 6.076021
LeftLeg -3.301039 -0.000000 0.000000
LeftFoot -6.990197 8.379785 -20.692161
LeftToeBase 6.781304 -0.000000 -0.000000
Spine -11.640460 -2.019090 -3.291707
RightShoulder 10.725805 -27.248296 -16.479951
RightArm 129.957998 -50.817961 -37.231724
RightForeArm -34.818207 0.000000 114.569507
RightHand 37.254272 -0.000000 -31.371787
RightHandThumb1 -24.326973 -0.000000 -32.862282
LeftShoulder -15.633350 3.560704 32.408146
LeftArm 162.778258 -34.560795 -105.305631
LeftForeArm -33.861099 -0.000000 149.102325
LeftHand -2.137200 -0.000000 -9.603176
LeftHandThumb1 -26.253704 0.000000 33.147579
Head 38.701076 -13.645531 4.625607
1853
root 1.164828 37.106960 7.907067 2.358404 -7.057627 0.887271
RightUpLeg 8.715495 3.256491 -1.733627
RightLeg -6.564412 -0.000000 0.000000
RightFoot -10.188167 -7.629608 17.406847
RightToeBase 13.626619 -0.000000 -0.000000
LeftUpLeg 7.521403 7.249618 6.061358
LeftLeg -3.298389 -0.000000 0.000000
LeftFoot -6.985123 8.347338 -20.713681
LeftToeBase 6.768760 -0.000000 -0.000000
Spine -11.635337 -1.800125 -3.351826
RightShoulder 10.649478 -27.494282 -16.479667
RightArm 129.847750 -50.863720 -37.033723
RightForeArm -34.829598 -0.000000 114.619541
RightHand 37.321466 -0.000000 -31.096769
RightHandThumb1 -24.326973 -0.000000 -32.862282
LeftShoulder -15.667714 3.565939 32.284549
LeftArm 163.186711 -34.489675 -105.778391
LeftForeArm -33.772360 -0.000000 149.271606
LeftHand -2.189895 -0.000000 -9.231480
LeftHandThumb1 -26.253704 0.000000 33.147579
Head 38.686635 -13.717225 4.406690
